<?xml version="1.0" standalone="no"?>
<!DOCTYPE svg PUBLIC "-//W3C//DTD SVG 20010904//EN"
 "http://www.w3.org/TR/2001/REC-SVG-20010904/DTD/svg10.dtd">
<svg version="1.0" xmlns="http://www.w3.org/2000/svg"
 width="600.000000pt" height="600.000000pt" viewBox="0 0 600.000000 600.000000"
 preserveAspectRatio="xMidYMid meet">
<metadata>
Created by potrace 1.14, written by Peter Selinger 2001-2017
</metadata>
<g transform="translate(0.000000,600.000000) scale(0.100000,-0.100000)"
fill="#000000" stroke="none">
<path d="M3548 4775 c-2 -1 -37 -5 -78 -8 -41 -3 -88 -8 -105 -12 -95 -20
-129 -29 -210 -56 -49 -16 -99 -34 -110 -39 -11 -5 -59 -27 -107 -49 -49 -22
-88 -42 -88 -46 0 -3 12 1 28 8 31 17 187 62 247 73 22 3 49 8 60 10 33 6 185
6 260 -1 210 -19 405 -107 552 -251 137 -135 217 -277 273 -486 20 -72 26
-105 29 -150 1 -16 16 -18 166 -18 l165 0 -4 23 c-3 12 -12 60 -21 107 -102
537 -459 858 -992 894 -34 2 -63 3 -65 1z"/>
<path d="M2318 4448 c41 -82 47 -100 46 -153 -2 -68 -18 -101 -98 -205 -28
-36 -44 -60 -35 -53 8 7 48 28 88 48 149 74 232 56 379 -79 l34 -31 -49 95
c-43 86 -48 101 -47 160 1 48 7 75 24 105 22 40 95 133 115 147 26 19 -10 5
-67 -27 -72 -39 -159 -64 -203 -58 -43 6 -101 38 -172 94 l-61 49 46 -92z"/>
<path d="M923 3620 l7 -32 -95 6 -95 6 0 -95 0 -95 28 -1 c15 0 52 -2 82 -4
58 -4 180 -10 417 -20 l143 -7 -3 89 c-2 101 14 89 -132 96 -79 4 -80 5 -89
35 -5 19 -15 30 -25 30 -36 -2 -227 14 -235 19 -5 4 -6 -8 -3 -27z"/>
<path d="M4776 3623 c-1 -1 -24 -3 -51 -4 -28 -1 -55 -4 -61 -6 -6 -2 -11 -29
-12 -59 0 -31 -2 -57 -4 -59 -2 -2 -68 -6 -148 -10 -125 -7 -183 -10 -212 -14
-3 -1 -6 -251 -6 -557 0 -413 3 -556 11 -559 7 -2 57 -6 112 -9 55 -4 132 -8
170 -11 124 -7 249 -16 293 -20 161 -16 261 -16 290 -1 40 21 79 69 91 113 6
22 11 245 11 571 l0 534 -72 -6 c-40 -3 -125 -8 -189 -12 l-116 -6 2 61 3 61
-55 -2 c-30 -2 -55 -4 -57 -5z m259 -475 l0 -183 -75 0 -75 0 0 175 c0 199 -6
186 90 189 l61 2 -1 -183z m-381 4 c-1 -86 -2 -164 -3 -173 -1 -13 -14 -16
-73 -15 l-73 1 0 170 0 170 60 5 c97 8 90 20 89 -158z m-1 -490 c0 -70 -1
-133 -2 -140 -1 -10 -19 -12 -73 -10 l-73 3 0 138 -1 137 76 0 75 0 -2 -128z
m383 -5 c0 -154 -4 -162 -84 -163 -56 0 -62 2 -63 20 -1 12 -2 75 -3 141 -1
138 -4 134 92 125 l57 -5 1 -118z"/>
<path d="M1686 3582 c-3 -3 -6 -14 -6 -24 0 -17 -8 -18 -122 -12 l-123 6 3
-81 4 -81 36 -1 c20 -1 60 -3 87 -4 28 -1 65 -3 83 -4 27 -1 32 -5 32 -27 l0
-26 -120 5 -120 4 -1 -51 c-2 -170 1 -418 5 -425 3 -4 57 -6 120 -3 l116 4 1
-29 c0 -15 0 -93 -1 -173 0 -80 0 -156 0 -170 1 -14 2 -50 3 -80 l2 -55 76 3
c42 2 84 5 95 7 10 2 25 4 32 4 9 1 12 57 12 246 l0 245 35 1 c19 1 43 2 53 4
61 7 125 63 142 124 15 55 13 321 -2 322 -7 1 -58 3 -113 5 -55 2 -103 3 -107
3 -5 1 -8 13 -8 27 l0 26 120 -5 121 -4 -3 75 c-3 87 9 79 -140 84 l-98 3 0
28 c0 26 -2 27 -52 28 -29 1 -76 2 -105 4 -28 2 -54 0 -57 -3z m-5 -469 c2
-73 0 -86 -14 -95 -17 -10 -19 -5 -19 59 0 87 1 93 17 93 11 0 15 -14 16 -57z
m253 -1 c-1 -26 -2 -57 -3 -68 -1 -12 -8 -24 -16 -28 -13 -4 -15 7 -15 73 0
71 2 79 18 74 14 -3 17 -14 16 -51z"/>
<path d="M3930 3570 c-51 -4 -64 -8 -62 -20 1 -8 24 -66 49 -128 51 -125 50
-131 -17 -125 -22 2 -40 1 -40 -2 0 -6 118 -302 136 -341 l15 -31 109 1 c105
0 120 3 103 20 -5 4 -8 11 -8 14 0 7 -37 103 -56 147 -4 11 -15 37 -23 58
l-15 37 42 1 c23 1 48 1 55 0 6 -1 12 -1 12 1 0 2 -33 86 -73 187 l-74 185
-44 0 c-24 1 -73 -1 -109 -4z"/>
<path d="M2459 3507 c-2 -112 6 -102 -81 -101 l-78 0 0 -76 0 -76 53 0 c28 -1
64 -2 79 -3 l27 -1 0 -237 c0 -131 0 -326 1 -433 l0 -195 69 3 70 4 0 386 c0
213 0 407 1 432 l0 45 81 -3 80 -4 -3 74 -3 73 -72 1 c-40 0 -76 3 -79 7 -4 3
-6 39 -5 79 l1 73 -70 2 -70 1 -1 -51z"/>
<path d="M2884 3374 l1 -175 -30 1 c-76 4 -72 8 -70 -77 1 -43 3 -81 4 -84 0
-3 33 -5 72 -5 l72 1 -1 -220 c0 -297 1 -285 -18 -285 -14 0 -15 13 -10 103 3
56 9 157 12 225 l6 122 -65 0 -64 0 -3 -72 c-1 -40 -4 -89 -5 -108 -1 -19 -6
-101 -10 -182 l-7 -147 63 -3 c62 -3 63 -4 73 -36 9 -32 11 -33 55 -31 59 3
93 20 123 61 22 32 23 42 28 273 4 132 7 202 9 155 6 -165 9 -246 11 -332 l2
-88 65 0 64 0 -7 188 c-4 103 -7 215 -8 249 0 34 -4 65 -8 68 -4 4 -34 7 -67
6 -60 -1 -61 0 -61 28 l0 28 73 -1 72 -1 3 83 3 82 -28 1 c-15 0 -61 1 -100 2
-40 1 -73 5 -73 10 0 4 0 29 0 56 l0 48 80 -2 c44 -1 84 1 89 4 10 7 14 36 12
104 l-1 47 -90 0 -90 0 0 40 0 40 -88 0 -89 0 1 -176z"/>
<path d="M3383 3502 c-51 -1 -93 -6 -94 -10 -5 -35 -2 -125 4 -129 5 -3 62 -5
126 -4 l117 2 -2 -58 c-7 -133 -14 -239 -18 -258 -2 -11 -7 -40 -11 -65 -6
-38 -9 -42 -16 -23 -19 52 -37 189 -38 294 l-1 55 -73 -1 c-39 0 -77 -4 -83
-8 -7 -4 -10 -25 -9 -49 2 -24 6 -77 9 -119 6 -96 30 -211 62 -302 41 -116 42
-109 -17 -166 l-53 -51 -1 -104 -1 -104 39 21 c21 12 68 49 105 83 l66 60 56
-56 c31 -31 78 -71 104 -89 l47 -33 -1 114 -2 113 -42 40 c-68 65 -70 69 -51
106 15 28 50 141 60 189 19 101 24 154 31 367 l6 191 -114 -1 c-62 -1 -155 -3
-205 -5z"/>
<path d="M763 3321 c2 -9 18 -53 35 -98 32 -88 31 -92 -26 -88 l-33 2 3 -96 3
-95 110 -1 110 0 2 -92 1 -93 -81 -2 c-45 0 -95 -1 -112 -2 l-30 -1 0 -94 0
-94 75 2 c41 1 87 4 103 5 15 2 30 0 33 -5 2 -5 -4 -64 -16 -131 -11 -68 -20
-126 -20 -131 0 -4 39 -4 88 -1 48 4 96 7 108 8 19 0 23 9 33 76 6 41 13 86
16 100 2 14 6 37 9 52 7 43 11 45 88 47 40 2 89 4 108 5 l35 1 1 88 1 88 -108
-3 -109 -3 -1 25 c-1 31 -1 119 0 141 1 15 15 17 94 17 50 0 99 0 108 1 15 1
17 14 15 89 l-1 87 -40 0 c-47 1 -47 2 -5 107 16 40 27 74 25 76 -3 3 -43 6
-91 8 l-86 3 -23 -53 c-13 -29 -29 -71 -36 -95 l-12 -42 -61 3 -60 3 -24 65
c-46 122 -51 130 -80 131 -15 0 -56 2 -90 4 -55 2 -63 0 -59 -14z"/>
<path d="M2321 3127 c-5 -176 -10 -347 -16 -539 l-6 -207 55 2 c30 2 57 5 61
8 5 6 8 75 20 561 l7 247 -60 0 -59 -1 -2 -71z"/>
<path d="M2615 3125 c2 -38 6 -176 10 -305 8 -247 12 -370 14 -408 1 -22 4
-23 59 -20 l57 4 -1 85 c-3 169 -19 670 -23 705 -1 8 -22 11 -60 11 l-58 -1 2
-71z"/>
<path d="M4005 2837 c-73 -215 -145 -450 -140 -455 3 -3 53 -6 112 -6 l106 -1
39 125 c22 69 55 174 74 233 19 60 34 109 34 110 0 2 -50 3 -110 5 -81 1 -112
-2 -115 -11z"/>
<path d="M1508 2812 c-18 -2 -28 -10 -29 -20 -1 -9 -2 -28 -4 -42 -3 -33 -16
-174 -20 -225 -2 -22 -6 -73 -10 -113 l-6 -73 87 5 c48 3 88 7 90 9 2 1 6 41
10 87 3 47 8 99 9 115 2 17 6 59 10 95 4 36 7 87 8 115 l2 50 -60 0 c-33 0
-72 -1 -87 -3z"/>
<path d="M1926 2783 c2 -21 6 -67 9 -103 3 -36 7 -83 10 -105 2 -22 7 -74 11
-115 3 -41 8 -78 10 -82 4 -5 110 -5 167 1 7 1 4 57 -8 161 -2 14 -7 66 -11
115 -3 50 -8 97 -10 105 -1 8 -3 25 -3 38 -1 21 -5 22 -90 22 l-89 0 4 -37z"/>
<path d="M3920 2099 c-19 -19 -75 -77 -125 -128 -161 -166 -318 -280 -516
-375 -350 -167 -651 -185 -928 -55 -188 88 -327 232 -411 426 -35 82 -37 78
-9 -24 94 -347 362 -605 704 -680 76 -17 286 -23 372 -11 439 64 885 355 1225
801 32 42 58 77 56 78 -2 0 -77 1 -168 2 l-165 2 -35 -36z"/>
</g>
</svg>
